<svg xmlns="http://www.w3.org/2000/svg" xmlns:xlink="http://www.w3.org/1999/xlink" width="260" zoomAndPan="magnify" viewBox="0 0 194.87999 44.999999" height="60" preserveAspectRatio="xMidYMid meet" version="1.0"><defs><g/><clipPath id="09fbf439fb"><path d="M 4.496094 3.054688 L 44.410156 3.054688 L 44.410156 41.945312 L 4.496094 41.945312 Z M 4.496094 3.054688 " clip-rule="nonzero"/></clipPath><clipPath id="ec2a37a24d"><path d="M 2.25 0.296875 L 46.472656 0.296875 L 46.472656 44.519531 L 2.25 44.519531 Z M 2.25 0.296875 " clip-rule="nonzero"/></clipPath></defs><g clip-path="url(#09fbf439fb)"><path fill="#ffffff" d="M 4.496094 3.054688 L 44.449219 3.054688 L 44.449219 41.945312 L 4.496094 41.945312 Z M 4.496094 3.054688 " fill-opacity="1" fill-rule="nonzero"/></g><g clip-path="url(#ec2a37a24d)"><path fill="#e15c31" d="M 46.648438 1.882812 C 46.648438 1.007812 45.9375 0.296875 45.0625 0.296875 L 3.835938 0.296875 C 2.960938 0.296875 2.25 1.007812 2.25 1.882812 L 2.25 43.109375 C 2.25 43.984375 2.960938 44.695312 3.835938 44.695312 L 45.0625 44.695312 C 45.9375 44.695312 46.648438 43.984375 46.648438 43.109375 Z M 26.035156 38.351562 L 26.035156 6.640625 C 26.035156 5.765625 25.324219 5.054688 24.449219 5.054688 C 23.574219 5.054688 22.863281 5.765625 22.863281 6.640625 L 22.863281 38.351562 C 22.863281 39.226562 23.574219 39.9375 24.449219 39.9375 C 25.324219 39.9375 26.035156 39.226562 26.035156 38.351562 Z M 21.277344 32.253906 L 21.277344 12.738281 C 21.277344 11.863281 20.566406 11.152344 19.691406 11.152344 C 18.816406 11.152344 18.105469 11.863281 18.105469 12.738281 L 18.105469 32.253906 C 18.105469 33.128906 18.816406 33.839844 19.691406 33.839844 C 20.566406 33.839844 21.277344 33.128906 21.277344 32.253906 Z M 30.789062 32.253906 L 30.789062 12.738281 C 30.789062 11.863281 30.082031 11.152344 29.203125 11.152344 C 28.328125 11.152344 27.621094 11.863281 27.621094 12.738281 L 27.621094 32.253906 C 27.621094 33.128906 28.328125 33.839844 29.203125 33.839844 C 30.082031 33.839844 30.789062 33.128906 30.789062 32.253906 Z M 35.546875 28.59375 L 35.546875 16.398438 C 35.546875 15.523438 34.835938 14.8125 33.960938 14.8125 C 33.085938 14.8125 32.375 15.523438 32.375 16.398438 L 32.375 28.59375 C 32.375 29.46875 33.085938 30.179688 33.960938 30.179688 C 34.835938 30.179688 35.546875 29.46875 35.546875 28.59375 Z M 16.519531 28.59375 L 16.519531 16.398438 C 16.519531 15.523438 15.808594 14.8125 14.933594 14.8125 C 14.058594 14.8125 13.347656 15.523438 13.347656 16.398438 L 13.347656 28.59375 C 13.347656 29.46875 14.058594 30.179688 14.933594 30.179688 C 15.808594 30.179688 16.519531 29.46875 16.519531 28.59375 Z M 11.761719 26.15625 L 11.761719 18.835938 C 11.761719 17.960938 11.050781 17.25 10.175781 17.25 C 9.300781 17.25 8.589844 17.960938 8.589844 18.835938 L 8.589844 26.15625 C 8.589844 27.03125 9.300781 27.742188 10.175781 27.742188 C 11.050781 27.742188 11.761719 27.03125 11.761719 26.15625 Z M 40.304688 26.15625 L 40.304688 18.835938 C 40.304688 17.960938 39.59375 17.25 38.71875 17.25 C 37.84375 17.25 37.132812 17.960938 37.132812 18.835938 L 37.132812 26.15625 C 37.132812 27.03125 37.84375 27.742188 38.71875 27.742188 C 39.59375 27.742188 40.304688 27.03125 40.304688 26.15625 Z M 40.304688 26.15625 " fill-opacity="1" fill-rule="evenodd"/></g><g fill="#ffffff" fill-opacity="1"><g transform="translate(48.375042, 31.747279)"><g><path d="M 21.710938 0 L 21.710938 -18.621094 L 16.3125 -18.621094 L 11.472656 -8.902344 L 6.628906 -18.621094 L 1.230469 -18.621094 L 1.230469 0 L 7.261719 0 L 7.261719 -7.484375 L 10.277344 -2.011719 L 12.664062 -2.011719 L 15.640625 -7.484375 L 15.640625 0 Z M 21.710938 0 "/></g></g></g><g fill="#ffffff" fill-opacity="1"><g transform="translate(70.415399, 31.747279)"><g><path d="M 7.261719 -13.964844 L 15.492188 -13.964844 L 15.492188 -18.621094 L 1.230469 -18.621094 L 1.230469 0 L 15.492188 0 L 15.492188 -4.65625 L 7.261719 -4.65625 L 7.261719 -7.074219 L 15.492188 -7.074219 L 15.492188 -11.546875 L 7.261719 -11.546875 Z M 7.261719 -13.964844 "/></g></g></g><g fill="#ffffff" fill-opacity="1"><g transform="translate(86.274437, 31.747279)"><g><path d="M 15.492188 -5.214844 L 7.261719 -5.214844 L 7.261719 -18.621094 L 1.230469 -18.621094 L 1.230469 0 L 15.492188 0 Z M 15.492188 -5.214844 "/></g></g></g><g fill="#ffffff" fill-opacity="1"><g transform="translate(101.947285, 31.747279)"><g><path d="M 9.757812 0.296875 C 15.34375 0.296875 18.507812 -3.203125 18.507812 -9.3125 C 18.507812 -15.457031 15.34375 -18.917969 9.757812 -18.917969 C 4.171875 -18.917969 1.003906 -15.457031 1.003906 -9.3125 C 1.003906 -3.203125 4.171875 0.296875 9.757812 0.296875 Z M 9.757812 -4.953125 C 7.96875 -4.953125 6.964844 -6.515625 6.964844 -9.3125 C 6.964844 -12.140625 7.96875 -13.707031 9.757812 -13.707031 C 11.507812 -13.707031 12.511719 -12.140625 12.550781 -9.3125 C 12.511719 -6.515625 11.507812 -4.953125 9.757812 -4.953125 Z M 9.757812 -4.953125 "/></g></g></g><g fill="#ffffff" fill-opacity="1"><g transform="translate(120.56185, 31.747279)"><g><path d="M 8.675781 -18.621094 L 1.230469 -18.621094 L 1.230469 0 L 8.675781 0 C 14.265625 0 17.429688 -3.351562 17.429688 -9.3125 C 17.429688 -15.269531 14.265625 -18.621094 8.675781 -18.621094 Z M 9.050781 -5.214844 L 7.261719 -5.214844 L 7.261719 -13.40625 L 9.050781 -13.40625 C 10.578125 -13.40625 11.472656 -11.953125 11.472656 -9.3125 C 11.472656 -6.703125 10.578125 -5.214844 9.050781 -5.214844 Z M 9.050781 -5.214844 "/></g></g></g><g fill="#ffffff" fill-opacity="1"><g transform="translate(138.059314, 31.747279)"><g><path d="M 18.695312 -18.621094 L 12.328125 -18.621094 L 9.535156 -12.589844 L 6.777344 -18.621094 L 0.410156 -18.621094 L 6.515625 -7.597656 L 6.515625 0 L 12.589844 0 L 12.589844 -7.597656 Z M 18.695312 -18.621094 "/></g></g></g><g fill="#ffffff" fill-opacity="1"><g transform="translate(156.115328, 31.747279)"><g><path d="M 7.261719 -13.964844 L 15.492188 -13.964844 L 15.492188 -18.621094 L 1.230469 -18.621094 L 1.230469 0 L 7.261719 0 L 7.261719 -7.074219 L 15.492188 -7.074219 L 15.492188 -11.546875 L 7.261719 -11.546875 Z M 7.261719 -13.964844 "/></g></g></g><g fill="#ffffff" fill-opacity="1"><g transform="translate(171.974369, 31.747279)"><g><path d="M 18.695312 -18.621094 L 12.328125 -18.621094 L 9.535156 -12.589844 L 6.777344 -18.621094 L 0.410156 -18.621094 L 6.515625 -7.597656 L 6.515625 0 L 12.589844 0 L 12.589844 -7.597656 Z M 18.695312 -18.621094 "/></g></g></g></svg>